<?xml version="1.0" encoding="UTF-8"?> <svg xmlns="http://www.w3.org/2000/svg" xmlns:xlink="http://www.w3.org/1999/xlink" width="500" zoomAndPan="magnify" viewBox="0 0 375 374.999991" height="500" preserveAspectRatio="xMidYMid meet" version="1.0"><defs><clipPath id="44f03a3a7a"><path d="M 138.878906 142.777344 L 140.882812 142.777344 L 140.882812 145.757812 L 138.878906 145.757812 Z M 138.878906 142.777344 " clip-rule="nonzero"></path></clipPath><clipPath id="b8db1d23c7"><path d="M 138.898438 143.550781 C 140.175781 142.949219 140.324219 143.925781 140.175781 144.074219 C 140.023438 144.226562 139.050781 144.074219 138.976562 143.851562 C 138.898438 143.699219 139.574219 142.800781 139.875 142.800781 C 140.175781 142.875 140.925781 144.074219 140.851562 144.601562 C 140.851562 145.050781 140.398438 145.574219 140.023438 145.726562 C 139.726562 145.800781 138.898438 145.5 138.898438 145.5 " clip-rule="nonzero"></path></clipPath></defs><path fill="#000000" d="M 78.539062 359.515625 C 18.621094 318.882812 45.128906 248.453125 75.34375 210.511719 L 52.25 236.21875 L 52.25 173.84375 C 41.273438 173.84375 30.289062 173.84375 19.3125 173.84375 C 12.261719 173.84375 8.609375 164.730469 14.980469 159.964844 C 70.476562 115.265625 125.972656 70.566406 181.457031 25.863281 C 183.25 34.414062 182.84375 41.253906 181.964844 49.238281 C 185.710938 37.171875 187.71875 13.796875 184.425781 0 C 216.152344 56.148438 179.726562 121.015625 143.894531 165.339844 C 104.609375 213.929688 35.492188 271.199219 66.394531 338.699219 C 71.007812 348.757812 77.050781 356.007812 78.539062 359.515625 Z M 78.539062 359.515625 " fill-opacity="1" fill-rule="nonzero"></path><path fill="#000000" d="M 146.753906 375.03125 C 83.320312 362.316406 70.976562 324.609375 90.222656 273.679688 C 109.558594 222.523438 152.605469 193.644531 170.332031 144.90625 C 148.925781 177.015625 127.527344 196.675781 104.214844 225.53125 C 78.828125 256.953125 56.082031 294.195312 74.714844 334.90625 C 87.941406 363.804688 116.078125 371.316406 146.753906 375.03125 Z M 317.101562 318.234375 C 249.695312 318.234375 182.28125 318.234375 114.878906 318.234375 C 107.71875 320.644531 105.484375 331.554688 111.550781 348.375 C 91.34375 328.167969 98.035156 298.730469 121.867188 290.058594 C 139.640625 283.59375 161.695312 296.019531 178.691406 296.960938 C 214.453125 298.949219 205.910156 268.839844 208.808594 257.390625 C 212.070312 244.503906 227.097656 247.753906 215.988281 234.933594 C 234.714844 225.375 220.296875 218.863281 221.199219 207.652344 C 222.40625 192.664062 253.007812 195.945312 237.917969 177.164062 C 226.769531 163.296875 219.152344 154.449219 217.953125 135.441406 C 223.007812 136.15625 232.699219 133.867188 236.898438 129.746094 C 232.628906 130.859375 225.375 131.539062 221.097656 129.660156 C 224.871094 127.921875 232.121094 124.660156 234.195312 120.75 C 227.921875 123.902344 224.730469 124.902344 217.632812 124.238281 C 220.460938 95.214844 226.03125 72.234375 216.699219 42.945312 L 253.023438 72.203125 L 253.023438 55.632812 L 305.035156 55.632812 L 305.035156 114.097656 L 362.398438 160.304688 C 367.984375 164.800781 364.75 173.8125 357.640625 173.820312 C 357.640625 173.828125 357.640625 173.835938 357.640625 173.84375 C 346.664062 173.84375 335.6875 173.84375 324.703125 173.84375 C 324.703125 219.429688 324.703125 265.023438 324.703125 310.617188 C 324.71875 314.824219 321.308594 318.234375 317.101562 318.234375 Z M 317.101562 318.234375 " fill-opacity="1" fill-rule="nonzero"></path><g clip-path="url(#44f03a3a7a)"><g clip-path="url(#b8db1d23c7)"><path fill="#000000" d="M 135.898438 139.800781 L 143.925781 139.800781 L 143.925781 148.734375 L 135.898438 148.734375 Z M 135.898438 139.800781 " fill-opacity="1" fill-rule="nonzero"></path></g></g></svg> 